<svg id="evjhGwnWAfp1" xmlns="http://www.w3.org/2000/svg" xmlns:xlink="http://www.w3.org/1999/xlink" viewBox="0 0 902.41854 826.20679" shape-rendering="geometricPrecision" text-rendering="geometricPrecision"><path id="evjhGwnWAfp2" d="M309.43024,280.65881C326.34564,234.361883,352.742994,192.107683,386.93192,156.602C415.93828,126.4903,461.08219,127.74149,461.08219,127.74149L461.34004,127.42149C483.554847,100.02707,520.034509,88.63121,553.89276,98.509C558.19702,99.74414,561.50776,100.29163,563.08219,99.74149C591.78931,89.69441,590.44053,67.01727,615.20835,48.74871C658.57535,16.76153,802.41929,53.40221,822.70255,112.26242C839.1417,159.9673,912.52276,183.08942,939.93837,219.57979Q946.36896,228.1384,952.55637,236.89537Q955.45766,240.96361,958.29385,245.0932C977.717616,273.221917,995.142825,302.67946,1010.44099,333.24862C1020.472846,353.2209,1029.191638,373.8261,1036.54187,394.93307C1065.13287,478.51516,1055.35567,540.78797,976.52087,525.40321Q962.52272,522.66421,949.19709,520.50208Q929.90089,517.35316,911.95068,515.32642Q887.77841,512.57749,865.95702,511.72425Q858.61979,511.42901,851.55193,511.32846C781.88156,510.36246,730.203,523.47496,690.83293,543.83014Q680.82211,548.99293,671.85961,554.75346C662.733316,560.587238,654.019374,567.042249,645.77956,574.07273C634.376893,583.857988,623.861784,594.632323,614.35707,606.26987L613.83491,606.90917C567.78665,663.23517,552.63191,725.59085,520.6004,736.56987C383.67414,783.51013,297.07405,613.35008,288.193,446.896Q287.52037,434.31441,287.44985,421.80472Q287.40822,416.21317,287.50485,410.65113C287.64537,400.97767,288.07185,391.36642,288.78599,381.87143Q289.18605,376.42601,289.71406,371.03821C290.10196,367.16479,290.52395,363.31453,291.01166,359.48839C294.49493,331.442,300.58862,304.75806,309.43024,280.65881Z" transform="matrix(1 0 0 1 -148.791 -36.8966)" fill="rgb(108,99,255)" stroke="none" stroke-width="1"/><path id="evjhGwnWAfp3" d="M726.94952,696.70767L735.62117,716.15159C728.5723,715.02938,722.01726,721.04937,721.86996,728.78037C721.72266,736.51137,728.00975,744.55458,735.05907,745.65347C733.71199,751.65578,727.89819,754.30202,722.85175,756.72798C717.80531,759.15394,712.36631,763.17754,712.74175,769.57315C713.04321,774.7085,717.28975,779.24237,721.79944,781.0653C726.30913,782.88823,731.04079,782.60802,735.60802,782.30214C728.68702,789.54198,728.01241,803.1499,734.09055,812.91295C740.16869,822.676,752.3072,827.48207,761.39594,823.72415C754.97408,831.71268,756.36926,846.34207,764.33922,854.58633C772.37354,862.89716,784.01722,863.70158,794.19628,862.82605C820.117865,860.634529,844.817282,850.846154,865.20312,834.68605C872.98485,828.50265,880.25354,821.23049,884.69265,811.74478C889.13176,802.25907,890.43965,790.24906,886.30487,779.45433C887.42007,792.97672,900.95482,803.65709,913.13076,804.25471C925.3067,804.85233,935.9374,797.99419,944.9713,790.1736C956.9853,779.77311,968.10866,765.1945,966.45971,747.2066C965.6434,738.30173,961.75393,729.73724,957.93917,721.4416L950.54352,705.35887C947.55781,698.86609,944.50438,692.2637,940.01059,686.81512C935.5168,681.36654,929.27934,677.14861,923.03752,677.18869C924.4647,670.66849,925.89829,663.9053,924.7023,656.97769C923.50631,650.05008,918.92653,642.87715,912.69806,641.25484C904.77124,639.19016,898.05326,646.50522,890.08226,645.81565C882.41157,645.15205,876.07226,637.45365,868.62355,634.40325C862.356402,631.692817,855.078987,632.951597,850.08637,637.60964C845.36437,642.21934,843.39605,650.00758,845.09051,657.37683C846.57486,663.83228,850.52516,669.52592,852.92283,675.75172C855.3205,681.97752,855.69266,689.98272,851.08773,693.38301C845.53109,697.48601,837.07331,691.9028,832.73207,685.14817C828.39083,678.39354,825.89828,670.21481,820.40846,664.53417C813.92922,657.82966,803.78698,656.25844,797.11589,660.92572C790.4448,665.593,787.89355,676.04494,791.2567,684.92955C794.00657,692.19404,800.30579,699.54305,798.12107,706.38383C795.81207,713.61363,785.70845,712.69815,779.614,707.58854C773.51955,702.47893,769.47289,694.78264,763.45257,689.55827C757.33857,684.25265,749.35445,681.92792,742.34536,683.41254C735.119609,685.08898,729.248116,690.335357,726.77225,697.32764" transform="matrix(1 0 0 1 -148.791 -36.8966)" fill="rgb(230,230,230)" stroke="none" stroke-width="1"/><path id="evjhGwnWAfp4" d="M867.34667,642.06633L849.35411,650.42591C846.649481,651.761568,843.581966,652.175117,840.62019,651.60338C838.0081,650.98562,836.24303,649.38861,835.7791,647.22008L831.59251,627.66586C830.80201,623.97717,833.85704,619.61272,838.85627,617.29001L848.79279,612.67338C853.79203,610.35067,859.09779,610.83058,861.40708,613.81362L873.65139,629.62411C875.00951,631.3772,875.09169,633.75611,873.87922,636.1508C872.406071,638.783067,870.111716,640.860712,867.34667,642.06633Z" transform="matrix(1 0 0 1 -148.791 -36.8966)" fill="rgb(63,61,86)" stroke="none" stroke-width="1"/><g id="evjhGwnWAfp5" transform="matrix(1 0 0 1 8.356976 90.887305)"><path id="evjhGwnWAfp6" d="M733.83354,372.24025C722.89832,377.33138,722.71815,400.13525,726.14705,407.52411L732.36088,420.89832L771.97026,402.49532L765.75643,389.12111C762.32083,381.73531,744.77678,367.16636,733.83354,372.24025Z" transform="matrix(1 0 0 1 -148.791 -36.8966)" fill="rgb(63,61,86)" stroke="none" stroke-width="1"/><path id="evjhGwnWAfp7" d="M627.39274,564.25616C625.978235,564.256143,624.65279,563.565672,623.84212,562.406518C623.03145,561.247363,622.837629,559.765476,623.32291,558.43682C623.714411,557.356233,624.522239,556.477366,625.56608,555.99639L830.11979,460.9583C831.161231,460.474174,832.352342,460.423612,833.431065,460.817737C834.509788,461.211863,835.38775,462.018389,835.87179,463.05987C836.876434,465.228973,835.935916,467.801983,833.76925,468.81187L833.76876,468.81187L629.215,563.84991C628.644598,564.116958,628.02256,564.255634,627.39274,564.25616Z" transform="matrix(1 0 0 1 -148.791 -36.8966)" fill="rgb(63,61,86)" stroke="none" stroke-width="1"/><rect id="evjhGwnWAfp8" width="64.4738" height="217.68" rx="0" ry="0" transform="matrix(0.906896 -0.421356 0.421356 0.906896 580.138892 401.294322)" fill="rgb(230,230,230)" stroke="none" stroke-width="1"/><path id="evjhGwnWAfp9" d="M567.90452,162.51413C556.9693,167.60526,556.78913,190.40913,560.21803,197.79799L566.43186,211.1722L606.04124,192.7692L599.82741,179.395C596.39181,172.00919,578.84776,157.44024,567.90452,162.51413Z" transform="matrix(1 0 0 1 -148.791 -36.8966)" fill="rgb(63,61,86)" stroke="none" stroke-width="1"/><path id="evjhGwnWAfp10" d="M812.91932,664.76078L794.92676,673.12036C792.222133,674.456027,789.154616,674.869576,786.19284,674.29783C783.58074,673.68008,781.81567,672.08307,781.35175,669.91453L777.16515,650.36032C776.37466,646.67163,779.42968,642.30718,784.42892,639.98447L794.36543,635.36783C799.36467,633.04512,804.67043,633.52503,806.97973,636.50808L819.224,652.31857C820.58211,654.07166,820.6643,656.45057,819.45183,658.84525C817.978691,661.47751,815.684352,663.555155,812.91932,664.76078Z" transform="matrix(1 0 0 1 -148.791 -36.8966)" fill="rgb(63,61,86)" stroke="none" stroke-width="1"/><path id="evjhGwnWAfp11" d="M757.60057,692.20652L739.608,700.5661C736.903372,701.901762,733.835856,702.315312,730.87408,701.74357C728.26198,701.12581,726.49692,699.52881,726.03299,697.36027L721.8464,677.80605C721.0559,674.11736,724.11092,669.75292,729.11016,667.43021L739.04668,662.81357C744.04591,660.49086,749.35168,660.97077,751.66097,663.95381L763.90528,679.76431C765.26339,681.51739,765.34558,683.89631,764.13311,686.29099C762.659963,688.923255,760.365613,691.0009,757.60057,692.20652Z" transform="matrix(1 0 0 1 -148.791 -36.8966)" fill="rgb(63,61,86)" stroke="none" stroke-width="1"/><rect id="evjhGwnWAfp12" width="64.4738" height="440.016" rx="0" ry="0" transform="matrix(0.906896 -0.421356 0.421356 0.906896 429.811577 225.148246)" fill="rgb(230,230,230)" stroke="none" stroke-width="1"/><polyline id="evjhGwnWAfp13" points="548.951,403.691 542.39,389.254 546.167,387.512 552.708,401.903 647.423,611.909 643.65,613.662" fill="rgb(63,61,86)" stroke="none" stroke-width="1"/><polyline id="evjhGwnWAfp14" points="622.951,391.691 616.39,377.254 620.167,375.512 626.708,389.903 721.423,599.909 717.65,601.662" fill="rgb(63,61,86)" stroke="none" stroke-width="1"/><path id="evjhGwnWAfp15" d="M664.67094,266.81383L585.44527,303.62311C580.40127,295.77588,565.19588,255.56294,568.61008,243.63189L566.04736,232.25423L620.75084,206.83823L628.07303,215.84548C638.94215,219.18044,660.10154,256.95133,664.67094,266.81383Z" transform="matrix(1 0 0 1 -148.791 -36.8966)" fill="rgb(230,230,230)" stroke="none" stroke-width="1"/><path id="evjhGwnWAfp16" d="M623.03676,207.325L566.58583,233.55284C564.50221,234.52084,562.28321,234.16501,561.62957,232.75789C561.53583,232.55502,561.477621,232.337561,561.45748,232.11499L558.53584,200.94711C558.41074,199.61245,559.55251,198.10003,561.29693,197.28955L598.73374,179.896C600.47816,179.08552,602.37038,179.18831,603.30974,180.14466L625.2456,202.47829C626.36752,203.62058,625.75828,205.57586,623.88479,206.84555C623.615391,207.027789,623.331804,207.18812,623.03676,207.325Z" transform="matrix(1 0 0 1 -148.791 -36.8966)" fill="rgb(230,230,230)" stroke="none" stroke-width="1"/><path id="evjhGwnWAfp17" d="M667.31315,451.514C666.702099,451.515642,666.093065,451.443838,665.49915,451.30013C663.802428,450.948334,662.36389,449.831394,661.60267,448.27474L627.09,373.992C625.66178,370.9168,627.57926,366.98418,631.36442,365.22539L681.90055,341.74539C685.68619,339.98563,689.92789,341.05789,691.35709,344.1326L725.86979,418.4158C726.56866,420.001346,726.494564,421.821043,725.6691,423.34452C724.782855,425.04679,723.347011,426.399346,721.59488,427.18241L671.05924,450.66141C669.887299,451.214344,668.608953,451.505289,667.31315,451.514Z" transform="matrix(1 0 0 1 -148.791 -36.8966)" fill="rgb(63,61,86)" stroke="none" stroke-width="1"/><rect id="evjhGwnWAfp18" width="64.4738" height="217.68" rx="0" ry="0" transform="matrix(0.906896 -0.421356 0.421356 0.906896 466.963431 453.028103)" fill="rgb(230,230,230)" stroke="none" stroke-width="1"/><path id="evjhGwnWAfp19" d="M602.18887,210.58118L585.04194,218.54788C581.73312,220.08521,577.26907,217.5235,575.09222,212.8382C572.91537,208.1529,573.83654,203.08915,577.14536,201.55183L594.29229,193.58513C597.60111,192.0478,602.06516,194.60951,604.24201,199.29481C606.41886,203.98011,605.4977,209.04386,602.18887,210.58118Z" transform="matrix(1 0 0 1 -148.791 -36.8966)" fill="rgb(63,61,86)" stroke="none" stroke-width="1"/><path id="evjhGwnWAfp20" d="M621.79921,423.44358C610.86399,428.53471,610.68382,451.33858,614.11272,458.72744L620.32655,472.10165L659.93593,453.69865L653.7221,440.3244C650.2865,432.93864,632.74245,418.36969,621.79921,423.44358Z" transform="matrix(1 0 0 1 -148.791 -36.8966)" fill="rgb(63,61,86)" stroke="none" stroke-width="1"/></g><path id="evjhGwnWAfp21" d="M440.1517,377.92488C436.2897,380.49807,432.337,374.37364,436.27322,371.9147C440.135,369.34165,444.08773,375.46609,440.1517,377.92488Z" transform="matrix(1 0 0 1 -148.791 -36.8966)" fill="rgb(230,230,230)" stroke="none" stroke-width="1"/><path id="evjhGwnWAfp22" d="M842.1517,289.92488C838.2897,292.49807,834.337,286.37364,838.27322,283.9147C842.135,281.34165,846.08773,287.46609,842.1517,289.92488Z" transform="matrix(1 0 0 1 -148.791 -36.8966)" fill="rgb(230,230,230)" stroke="none" stroke-width="1"/><path id="evjhGwnWAfp23" d="M568.1517,359.92488C564.2897,362.49807,560.337,356.37364,564.27322,353.9147C568.135,351.34165,572.08773,357.46609,568.1517,359.92488Z" transform="matrix(1 0 0 1 -148.791 -36.8966)" fill="rgb(230,230,230)" stroke="none" stroke-width="1"/><path id="evjhGwnWAfp24" d="M440.1517,599.92488C436.2897,602.49807,432.337,596.37364,436.27322,593.9147C440.135,591.34165,444.08773,597.46609,440.1517,599.92488Z" transform="matrix(1 0 0 1 -148.791 -36.8966)" fill="rgb(230,230,230)" stroke="none" stroke-width="1"/><path id="evjhGwnWAfp25" d="M637.1517,98.92488C633.2897,101.49807,629.337,95.37364,633.27322,92.9147C637.135,90.34165,641.08773,96.46609,637.1517,98.92488Z" transform="matrix(1 0 0 1 -148.791 -36.8966)" fill="rgb(230,230,230)" stroke="none" stroke-width="1"/><path id="evjhGwnWAfp26" d="M447.1517,216.92488C443.2897,219.49807,439.337,213.37364,443.27322,210.9147C447.135,208.34165,451.08773,214.46609,447.1517,216.92488Z" transform="matrix(1 0 0 1 -148.791 -36.8966)" fill="rgb(230,230,230)" stroke="none" stroke-width="1"/><polygon id="evjhGwnWAfp27" points="571.639,146.2 569.182,145.661 569.72,143.203 568.082,142.844 567.543,145.302 565.086,144.764 564.727,146.402 567.184,146.941 566.646,149.398 568.284,149.757 568.823,147.299 571.28,147.838 571.639,146.2" fill="rgb(230,230,230)" stroke="none" stroke-width="1"/><polygon id="evjhGwnWAfp28" points="171.542,350.978 169.085,350.439 169.623,347.982 167.985,347.623 167.446,350.08 164.988,349.542 164.629,351.18 167.087,351.719 166.549,354.177 168.187,354.535 168.726,352.078 171.183,352.616 171.542,350.978" fill="rgb(230,230,230)" stroke="none" stroke-width="1"/><path id="evjhGwnWAfp29" d="M824.22,492.33287C819.962404,494.305035,814.911846,492.458813,812.92986,488.20578L802.81733,466.44028C800.846376,462.18422,802.695315,457.136043,806.948912,455.159779C811.202509,453.183515,816.252989,455.026152,818.23456,459.27728L828.34709,481.04277C830.319228,485.300356,828.473011,490.350884,824.22,492.33287Z" transform="matrix(1 0 0 1 -148.791 -36.8966)" fill="rgb(63,61,86)" stroke="none" stroke-width="1"/><path id="evjhGwnWAfp30" d="M652.22,572.33287C647.962404,574.305035,642.911846,572.458813,640.92986,568.20578L630.81733,546.44028C628.846376,542.18422,630.695315,537.136043,634.948912,535.159779C639.202509,533.183515,644.252989,535.026152,646.23456,539.27728L656.34709,561.04277C658.319228,565.300356,656.473011,570.350884,652.22,572.33287Z" transform="matrix(1 0 0 1 -148.791 -36.8966)" fill="rgb(63,61,86)" stroke="none" stroke-width="1"/><path id="evjhGwnWAfp31" d="M808.64176,444.7781L740.83591,476.28159C736.51891,469.56548,723.50533,435.14894,726.42739,424.93766L727.86165,413.51459L768.34779,393.65153L777.31919,401.15653C789.95914,396.88314,808.53922,428.20455,808.64176,444.7781Z" transform="matrix(1 0 0 1 -148.791 -36.8966)" fill="rgb(230,230,230)" stroke="none" stroke-width="1"/><path id="evjhGwnWAfp32" d="M777.16178,442.59376L760.01485,450.56047C756.70603,452.0978,751.67132,448.30783,748.79321,442.11319C745.9151,435.91855,746.2656,429.62654,749.57442,428.08919L766.72135,420.12248C770.03017,418.58516,775.06488,422.37512,777.94299,428.56976C780.8211,434.7644,780.4706,441.05644,777.16178,442.59376Z" transform="matrix(1 0 0 1 -148.791 -36.8966)" fill="rgb(63,61,86)" stroke="none" stroke-width="1"/><polyline id="evjhGwnWAfp33" points="482.951,446.691 476.39,432.254 480.167,430.512 486.708,444.903 581.423,654.909 577.65,656.662" fill="rgb(63,61,86)" stroke="none" stroke-width="1"/><path id="evjhGwnWAfp34" d="M696.60745,495.98143L628.80155,527.48492C618.79844,522.32,603.51047,488.52392,614.39304,476.14098L615.82732,464.71792L656.31346,444.85486L665.28486,452.35986C674.58727,455.214,692.6967,487.54053,696.60745,495.98143Z" transform="matrix(1 0 0 1 -148.791 -36.8966)" fill="rgb(230,230,230)" stroke="none" stroke-width="1"/><path id="evjhGwnWAfp35" d="M663.73193,490.79348L646.585,498.76018C643.27618,500.29751,638.55453,497.18135,636.06112,491.81471C633.56771,486.44807,634.23127,480.82987,637.54012,479.29255L654.68705,471.32584C657.99587,469.78852,662.71752,472.90468,665.21093,478.27131C667.70434,483.63794,667.04075,489.25615,663.73193,490.79348Z" transform="matrix(1 0 0 1 -148.791 -36.8966)" fill="rgb(63,61,86)" stroke="none" stroke-width="1"/><circle id="evjhGwnWAfp36" r="103" transform="matrix(1 0 0 1 110.177553 152.461384)" fill="rgb(255,101,132)" stroke="none" stroke-width="1"/><path id="evjhGwnWAfp37" d="M742.39622,349.02053L804.98943,166.21153L736.2582,346.83222C735.324606,348.009655,735.262828,349.656669,736.105595,350.900733C736.948362,352.144796,738.500822,352.698277,739.940536,352.26796C741.380251,351.837642,742.374352,350.523019,742.3962,349.02053Z" transform="matrix(1 0 0 1 -148.791 -36.8966)" opacity="0.3" fill="rgb(240,240,240)" stroke="none" stroke-width="1"/><path id="evjhGwnWAfp38" d="M901.95012,240.05454Q883.57041,246.1629,861.19867,252.05537C784.05352,272.36637,680.64891,288.20965,570.03309,296.66808C459.41774,305.12636,354.8057,305.18756,275.46959,296.84234C236.82239,292.77656,206.25464,286.92917,184.61591,279.46134C161.70648,271.55604,149.66867,262.02943,148.83639,251.1477C147.21565,229.94802,189.04897,211.28916,224.42833,199.36954L225.38652,202.21243C176.80129,218.58114,150.6779,235.879,151.8281,250.9191C153.2924,270.07505,198.47246,285.72541,275.78339,293.85868C354.94518,302.18568,459.36391,302.12184,569.80477,293.6773C680.24486,285.23199,783.45967,269.41991,860.43508,249.15398C935.6086,229.36341,977.88556,207.02477,976.42065,187.86851C975.20436,171.96385,943.85343,158.35815,888.14295,149.55611L888.61129,146.59311C929.09129,152.98884,977.70385,165.30134,979.41236,187.63986C980.24417,198.52174,969.7946,209.76723,948.35344,221.06386C936.13107,227.5031,920.60136,233.856,901.95012,240.05454Z" transform="matrix(1 0 0 1 -148.791 -36.8966)" fill="rgb(63,61,86)" stroke="none" stroke-width="1"/><circle id="evjhGwnWAfp39" r="10.7023" transform="matrix(1 0 0 1 783.425 375.136)" fill="rgb(255,101,132)" stroke="none" stroke-width="1"/><circle id="evjhGwnWAfp40" r="10.7023" transform="matrix(1 0 0 1 851.425 665.136)" fill="rgb(242,242,242)" stroke="none" stroke-width="1"/><circle id="evjhGwnWAfp41" r="20.8661" transform="matrix(1 0 0 1 486.425 720.136)" fill="rgb(242,242,242)" stroke="none" stroke-width="1"/><circle id="evjhGwnWAfp42" r="10.7023" transform="matrix(1 0 0 1 327.425 454.136)" fill="rgb(63,61,86)" stroke="none" stroke-width="1"/><polygon id="evjhGwnWAfp43" points="687.226,478.768 733.402,490.721 761.723,546.349 713.843,548.227 687.226,478.768" fill="rgb(230,230,230)" stroke="none" stroke-width="1"/><polygon id="evjhGwnWAfp44" points="580.645,398.574 606.059,424.002 670.606,563.557 658.722,573.824 580.645,398.574" fill="rgb(204,204,204)" stroke="none" stroke-width="1"/><polygon id="evjhGwnWAfp45" points="525.386,421.624 527.38,457.52 588.304,598.694 603.88,596.688 525.386,421.624" fill="rgb(204,204,204)" stroke="none" stroke-width="1"/><polygon id="evjhGwnWAfp46" points="523.723,566.637 498.854,607.339 517.187,667.008 552.9,635.061 523.723,566.637" fill="rgb(230,230,230)" stroke="none" stroke-width="1"/><path id="evjhGwnWAfp47" d="M892.19547,628.54368Q872.82731,628.54368,849.73893,627.07981C770.12516,622.02415,667.00113,604.447,559.36293,577.58762C451.72524,550.72825,352.43276,517.79368,279.77748,484.85325C244.3849,468.80637,217.22133,453.61692,199.04213,439.70579C179.79506,424.97879,171.37613,412.14179,174.0182,401.55296C179.16615,380.92405,224.7492,376.41087,262.0822,376.25755L262.09489,379.25755C210.82683,379.46799,180.58122,387.64426,176.92937,402.27955C172.27751,420.91968,210.21599,450.02027,281.01628,482.12086C353.51189,514.98902,452.62175,547.86011,560.08952,574.6775C667.55681,601.4939,770.49089,619.04078,849.92937,624.0857C927.50798,629.01343,974.67253,621.1482,979.3239,602.50758C983.18571,587.03101,957.72575,564.23218,907.63445,538.30933L909.01335,535.64527C945.41035,554.48121,987.65886,581.49683,982.23503,603.23414C979.59244,613.823,966.12955,621.199,942.21988,625.157C928.59049,627.41282,911.84977,628.54368,892.19547,628.54368Z" transform="matrix(1 0 0 1 -148.791 -36.8966)" fill="rgb(63,61,86)" stroke="none" stroke-width="1"/><script><![CDATA[!function(t,n){"object"==typeof exports&&"undefined"!=typeof module?module.exports=n():"function"==typeof define&&define.amd?define(n):((t="undefined"!=typeof globalThis?globalThis:t||self).__SVGATOR_PLAYER__=t.__SVGATOR_PLAYER__||{},t.__SVGATOR_PLAYER__["5c7f360c"]=n())}(this,(function(){"use strict";function t(t,n){var r=Object.keys(t);if(Object.getOwnPropertySymbols){var e=Object.getOwnPropertySymbols(t);n&&(e=e.filter((function(n){return Object.getOwnPropertyDescriptor(t,n).enumerable}))),r.push.apply(r,e)}return r}function n(t){return(n="function"==typeof Symbol&&"symbol"==typeof Symbol.iterator?function(t){return typeof t}:function(t){return t&&"function"==typeof Symbol&&t.constructor===Symbol&&t!==Symbol.prototype?"symbol":typeof t})(t)}function r(t,n){if(!(t instanceof n))throw new TypeError("Cannot call a class as a function")}function e(t,n){for(var r=0;r<n.length;r++){var e=n[r];e.enumerable=e.enumerable||!1,e.configurable=!0,"value"in e&&(e.writable=!0),Object.defineProperty(t,e.key,e)}}function i(t,n,r){return n&&e(t.prototype,n),r&&e(t,r),t}function o(t,n,r){return n in t?Object.defineProperty(t,n,{value:r,enumerable:!0,configurable:!0,writable:!0}):t[n]=r,t}function u(t){return(u=Object.setPrototypeOf?Object.getPrototypeOf:function(t){return t.__proto__||Object.getPrototypeOf(t)})(t)}function a(t,n){return(a=Object.setPrototypeOf||function(t,n){return t.__proto__=n,t})(t,n)}function l(t,n){if(n&&("object"==typeof n||"function"==typeof n))return n;if(void 0!==n)throw new TypeError("Derived constructors may only return object or undefined");return function(t){if(void 0===t)throw new ReferenceError("this hasn't been initialised - super() hasn't been called");return t}(t)}function f(t){var n=function(){if("undefined"==typeof Reflect||!Reflect.construct)return!1;if(Reflect.construct.sham)return!1;if("function"==typeof Proxy)return!0;try{return Boolean.prototype.valueOf.call(Reflect.construct(Boolean,[],(function(){}))),!0}catch(t){return!1}}();return function(){var r,e=u(t);if(n){var i=u(this).constructor;r=Reflect.construct(e,arguments,i)}else r=e.apply(this,arguments);return l(this,r)}}function s(t,n,r){return(s="undefined"!=typeof Reflect&&Reflect.get?Reflect.get:function(t,n,r){var e=function(t,n){for(;!Object.prototype.hasOwnProperty.call(t,n)&&null!==(t=u(t)););return t}(t,n);if(e){var i=Object.getOwnPropertyDescriptor(e,n);return i.get?i.get.call(r):i.value}})(t,n,r||t)}var c=h(Math.pow(10,-6));function h(t){var n=arguments.length>1&&void 0!==arguments[1]?arguments[1]:6;if(Number.isInteger(t))return t;var r=Math.pow(10,n);return Math.round((+t+Number.EPSILON)*r)/r}function v(t,n){var r=arguments.length>2&&void 0!==arguments[2]?arguments[2]:c;return Math.abs(t-n)<r}var y=Math.PI/180;function g(t){return t}function d(t,n,r){var e=1-r;return 3*r*e*(t*e+n*r)+r*r*r}function p(){var t=arguments.length>0&&void 0!==arguments[0]?arguments[0]:0,n=arguments.length>1&&void 0!==arguments[1]?arguments[1]:0,r=arguments.length>2&&void 0!==arguments[2]?arguments[2]:1,e=arguments.length>3&&void 0!==arguments[3]?arguments[3]:1;return t<0||t>1||r<0||r>1?null:v(t,n)&&v(r,e)?g:function(i){if(i<=0)return t>0?i*n/t:0===n&&r>0?i*e/r:0;if(i>=1)return r<1?1+(i-1)*(e-1)/(r-1):1===r&&t<1?1+(i-1)*(n-1)/(t-1):1;for(var o,u=0,a=1;u<a;){var l=d(t,r,o=(u+a)/2);if(v(i,l))break;l<i?u=o:a=o}return d(n,e,o)}}function m(){return 1}function b(t){return 1===t?1:0}function w(){var t=arguments.length>0&&void 0!==arguments[0]?arguments[0]:1,n=arguments.length>1&&void 0!==arguments[1]?arguments[1]:0;if(1===t){if(0===n)return b;if(1===n)return m}var r=1/t;return function(t){return t>=1?1:(t+=n*r)-t%r}}function x(t,n,r){return t>=.5?r:n}function k(t,n,r){return 0===t||n===r?n:t*(r-n)+n}function _(t,n,r){var e=k(t,n,r);return e<=0?0:e}function A(t,n,r){return 0===t?n:1===t?r:{x:k(t,n.x,r.x),y:k(t,n.y,r.y)}}function S(t,n,r){var e=function(t,n,r){return Math.round(k(t,n,r))}(t,n,r);return e<=0?0:e>=255?255:e}function O(t,n,r){return 0===t?n:1===t?r:{r:S(t,n.r,r.r),g:S(t,n.g,r.g),b:S(t,n.b,r.b),a:k(t,null==n.a?1:n.a,null==r.a?1:r.a)}}function P(t,n,r){if(0===t)return n;if(1===t)return r;var e=n.length;if(e!==r.length)return x(t,n,r);for(var i=[],o=0;o<e;o++)i.push(O(t,n[o],r[o]));return i}function j(t,n){for(var r=[],e=0;e<t;e++)r.push(n);return r}function M(t,n){if(--n<=0)return t;var r=(t=Object.assign([],t)).length;do{for(var e=0;e<r;e++)t.push(t[e])}while(--n>0);return t}var E,R=function(){function t(n){r(this,t),this.list=n,this.length=n.length}return i(t,[{key:"setAttribute",value:function(t,n){for(var r=this.list,e=0;e<this.length;e++)r[e].setAttribute(t,n)}},{key:"removeAttribute",value:function(t){for(var n=this.list,r=0;r<this.length;r++)n[r].removeAttribute(t)}},{key:"style",value:function(t,n){for(var r=this.list,e=0;e<this.length;e++)r[e].style[t]=n}}]),t}(),I=/-./g,F=function(t,n){return n.toUpperCase()};function N(t){return"function"==typeof t?t:x}function T(t){return t?"function"==typeof t?t:Array.isArray(t)?function(t){var n=arguments.length>1&&void 0!==arguments[1]?arguments[1]:g;if(!Array.isArray(t))return n;switch(t.length){case 1:return w(t[0])||n;case 2:return w(t[0],t[1])||n;case 4:return p(t[0],t[1],t[2],t[3])||n}return n}(t,null):function(t,n){var r=arguments.length>2&&void 0!==arguments[2]?arguments[2]:g;switch(t){case"linear":return g;case"steps":return w(n.steps||1,n.jump||0)||r;case"bezier":case"cubic-bezier":return p(n.x1||0,n.y1||0,n.x2||0,n.y2||0)||r}return r}(t.type,t.value,null):null}function B(t,n,r){var e=arguments.length>3&&void 0!==arguments[3]&&arguments[3],i=n.length-1;if(t<=n[0].t)return e?[0,0,n[0].v]:n[0].v;if(t>=n[i].t)return e?[i,1,n[i].v]:n[i].v;var o,u=n[0],a=null;for(o=1;o<=i;o++){if(!(t>n[o].t)){a=n[o];break}u=n[o]}return null==a?e?[i,1,n[i].v]:n[i].v:u.t===a.t?e?[o,1,a.v]:a.v:(t=(t-u.t)/(a.t-u.t),u.e&&(t=u.e(t)),e?[o,t,r(t,u.v,a.v)]:r(t,u.v,a.v))}function q(t,n){var r=arguments.length>2&&void 0!==arguments[2]?arguments[2]:null;return t&&t.length?"function"!=typeof n?null:("function"!=typeof r&&(r=null),function(e){var i=B(e,t,n);return null!=i&&r&&(i=r(i)),i}):null}function L(t,n){return t.t-n.t}function C(t,r,e,i,o){var u,a="@"===e[0],l="#"===e[0],f=E[e],s=x;switch(a?(u=e.substr(1),e=u.replace(I,F)):l&&(e=e.substr(1)),n(f)){case"function":if(s=f(i,o,B,T,e,a,r,t),l)return s;break;case"string":s=q(i,N(f));break;case"object":if((s=q(i,N(f.i),f.f))&&"function"==typeof f.u)return f.u(r,s,e,a,t)}return s?function(t,n,r){if(arguments.length>3&&void 0!==arguments[3]&&arguments[3])return t instanceof R?function(e){return t.style(n,r(e))}:function(e){return t.style[n]=r(e)};if(Array.isArray(n)){var e=n.length;return function(i){var o=r(i);if(null==o)for(var u=0;u<e;u++)t[u].removeAttribute(n);else for(var a=0;a<e;a++)t[a].setAttribute(n,o)}}return function(e){var i=r(e);null==i?t.removeAttribute(n):t.setAttribute(n,i)}}(r,e,s,a):null}function D(t,r,e,i){if(!i||"object"!==n(i))return null;var o=null,u=null;return Array.isArray(i)?u=function(t){if(!t||!t.length)return null;for(var n=0;n<t.length;n++)t[n].e&&(t[n].e=T(t[n].e));return t.sort(L)}(i):(u=i.keys,o=i.data||null),u?C(t,r,e,u,o):null}function z(t,n,r){if(!r)return null;var e=[];for(var i in r)if(r.hasOwnProperty(i)){var o=D(t,n,i,r[i]);o&&e.push(o)}return e.length?e:null}function V(t,n){if(!n.duration||n.duration<0)return null;var r=function(t,n){if(!n)return null;var r=[];if(Array.isArray(n))for(var e=n.length,i=0;i<e;i++){var o=n[i];if(2===o.length){var u=null;if("string"==typeof o[0])u=t.getElementById(o[0]);else if(Array.isArray(o[0])){u=[];for(var a=0;a<o[0].length;a++)if("string"==typeof o[0][a]){var l=t.getElementById(o[0][a]);l&&u.push(l)}u=u.length?1===u.length?u[0]:new R(u):null}if(u){var f=z(t,u,o[1]);f&&(r=r.concat(f))}}}else for(var s in n)if(n.hasOwnProperty(s)){var c=t.getElementById(s);if(c){var h=z(t,c,n[s]);h&&(r=r.concat(h))}}return r.length?r:null}(t,n.elements);return r?function(t,n){var r=arguments.length>2&&void 0!==arguments[2]?arguments[2]:1/0,e=arguments.length>3&&void 0!==arguments[3]?arguments[3]:1,i=arguments.length>4&&void 0!==arguments[4]&&arguments[4],o=arguments.length>5&&void 0!==arguments[5]?arguments[5]:1,u=t.length,a=e>0?n:0;i&&r%2==0&&(a=n-a);var l=null;return function(f,s){var c=f%n,h=1+(f-c)/n;s*=e,i&&h%2==0&&(s=-s);var v=!1;if(h>r)c=a,v=!0,-1===o&&(c=e>0?0:n);else if(s<0&&(c=n-c),c===l)return!1;l=c;for(var y=0;y<u;y++)t[y](c);return v}}(r,n.duration,n.iterations||1/0,n.direction||1,!!n.alternate,n.fill||1):null}function G(t){return+("0x"+(t.replace(/[^0-9a-fA-F]+/g,"")||27))}function Y(t,n,r){return!t||!r||n>t.length?t:t.substring(0,n)+Y(t.substring(n+1),r,r)}function Q(t){var n=arguments.length>1&&void 0!==arguments[1]?arguments[1]:27;return!t||t%n?t%n:Q(t/n,n)}function U(t,n,r){if(t&&t.length){var e=G(r),i=G(n),o=Q(e)+5,u=Y(t,Q(e,5),o);return u=u.replace(/\x7c$/g,"==").replace(/\x2f$/g,"="),u=function(t,n,r){var e=+("0x"+t.substring(0,4));t=t.substring(4);for(var i=n%e+r%27,o=[],u=0;u<t.length;u+=2)if("|"!==t[u]){var a=+("0x"+t[u]+t[u+1])-i;o.push(a)}else{var l=+("0x"+t.substring(u+1,u+1+4))-i;u+=3,o.push(l)}return String.fromCharCode.apply(String,o)}(u=(u=atob(u)).replace(/[\x41-\x5A]/g,""),i,e),u=JSON.parse(u)}}Number.isInteger||(Number.isInteger=function(t){return"number"==typeof t&&isFinite(t)&&Math.floor(t)===t}),Number.EPSILON||(Number.EPSILON=2220446049250313e-31);var $=function(){function n(t,e){var i=arguments.length>2&&void 0!==arguments[2]?arguments[2]:{};r(this,n),this._id=0,this._running=!1,this._rollingBack=!1,this._animations=t,this.duration=e.duration,this.alternate=e.alternate,this.fill=e.fill,this.iterations=e.iterations,this.direction=i.direction||1,this.speed=i.speed||1,this.fps=i.fps||100,this.offset=i.offset||0,this.rollbackStartOffset=0}return i(n,[{key:"_rollback",value:function(){var t=this,n=1/0,r=null;this.rollbackStartOffset=this.offset,this._rollingBack||(this._rollingBack=!0,this._running=!0);this._id=window.requestAnimationFrame((function e(i){if(t._rollingBack){null==r&&(r=i);var o=i-r,u=t.rollbackStartOffset-o,a=Math.round(u*t.speed);if(a>t.duration&&n!=1/0){var l=!!t.alternate&&a/t.duration%2>1,f=a%t.duration;a=(f+=l?t.duration:0)||t.duration}var s=t.fps?1e3/t.fps:0,c=Math.max(0,a);if(c<n-s){t.offset=c,n=c;for(var h=t._animations,v=h.length,y=0;y<v;y++)h[y](c,t.direction)}var g=!1;if(t.iterations>0&&-1===t.fill){var d=t.iterations*t.duration,p=d==a;a=p?0:a,t.offset=p?0:t.offset,g=a>d}a>0&&t.offset>=a&&!g?t._id=window.requestAnimationFrame(e):t.stop()}}))}},{key:"_start",value:function(){var t=this,n=arguments.length>0&&void 0!==arguments[0]?arguments[0]:0,r=-1/0,e=null,i={},o=function o(u){t._running=!0,null==e&&(e=u);var a=Math.round((u-e+n)*t.speed),l=t.fps?1e3/t.fps:0;if(a>r+l&&!t._rollingBack){t.offset=a,r=a;for(var f=t._animations,s=f.length,c=0,h=0;h<s;h++)i[h]?c++:(i[h]=f[h](a,t.direction),i[h]&&c++);if(c===s)return void t._stop()}t._id=window.requestAnimationFrame(o)};this._id=window.requestAnimationFrame(o)}},{key:"_stop",value:function(){this._id&&window.cancelAnimationFrame(this._id),this._running=!1,this._rollingBack=!1}},{key:"play",value:function(){!this._rollingBack&&this._running||(this._rollingBack=!1,this.rollbackStartOffset>this.duration&&(this.offset=this.rollbackStartOffset-(this.rollbackStartOffset-this.offset)%this.duration,this.rollbackStartOffset=0),this._start(this.offset))}},{key:"stop",value:function(){this._stop(),this.offset=0,this.rollbackStartOffset=0;var t=this.direction,n=this._animations;window.requestAnimationFrame((function(){for(var r=0;r<n.length;r++)n[r](0,t)}))}},{key:"reachedToEnd",value:function(){return this.iterations>0&&this.offset>=this.iterations*this.duration}},{key:"restart",value:function(){this._stop(),this.offset=0,this._start()}},{key:"pause",value:function(){this._stop()}},{key:"reverse",value:function(){this.direction=-this.direction}}],[{key:"build",value:function(r,e){return delete r.animationSettings,r.options=U(r.options,r.root,"5c7f360c"),r.animations.map((function(n){var e=U(n.s,r.root,"5c7f360c");for(var i in delete n.s,r.animationSettings||(r.animationSettings=function(n){for(var r=1;r<arguments.length;r++){var e=null!=arguments[r]?arguments[r]:{};r%2?t(Object(e),!0).forEach((function(t){o(n,t,e[t])})):Object.getOwnPropertyDescriptors?Object.defineProperties(n,Object.getOwnPropertyDescriptors(e)):t(Object(e)).forEach((function(t){Object.defineProperty(n,t,Object.getOwnPropertyDescriptor(e,t))}))}return n}({},e)),e)e.hasOwnProperty(i)&&(n[i]=e[i])})),(r=function(t,n){if(E=n,!t||!t.root||!Array.isArray(t.animations))return null;for(var r=document.getElementsByTagName("svg"),e=!1,i=0;i<r.length;i++)if(r[i].id===t.root&&!r[i].svgatorAnimation){(e=r[i]).svgatorAnimation=!0;break}if(!e)return null;var o=t.animations.map((function(t){return V(e,t)})).filter((function(t){return!!t}));return o.length?{element:e,animations:o,animationSettings:t.animationSettings,options:t.options||void 0}:null}(r,e))?{el:r.element,options:r.options||{},player:new n(r.animations,r.animationSettings,r.options)}:null}},{key:"push",value:function(t){return this.build(t)}},{key:"init",value:function(){var t=this,n=window.__SVGATOR_PLAYER__&&window.__SVGATOR_PLAYER__["5c7f360c"];Array.isArray(n)&&n.splice(0).forEach((function(n){return t.build(n)}))}}]),n}();function H(t){return h(t)+""}function J(t){var n=arguments.length>1&&void 0!==arguments[1]?arguments[1]:" ";return t&&t.length?t.map(H).join(n):""}function Z(t){return t?null==t.a||t.a>=1?"rgb("+t.r+","+t.g+","+t.b+")":"rgba("+t.r+","+t.g+","+t.b+","+t.a+")":"transparent"}!function(){for(var t=0,n=["ms","moz","webkit","o"],r=0;r<n.length&&!window.requestAnimationFrame;++r)window.requestAnimationFrame=window[n[r]+"RequestAnimationFrame"],window.cancelAnimationFrame=window[n[r]+"CancelAnimationFrame"]||window[n[r]+"CancelRequestAnimationFrame"];window.requestAnimationFrame||(window.requestAnimationFrame=function(n){var r=Date.now(),e=Math.max(0,16-(r-t)),i=window.setTimeout((function(){n(r+e)}),e);return t=r+e,i},window.cancelAnimationFrame=window.clearTimeout)}();var K={f:null,i:function(t,n,r){return 0===t?n:1===t?r:{x:_(t,n.x,r.x),y:_(t,n.y,r.y)}},u:function(t,n){return function(r){var e=n(r);t.setAttribute("rx",H(e.x)),t.setAttribute("ry",H(e.y))}}},W={f:null,i:function(t,n,r){return 0===t?n:1===t?r:{width:_(t,n.width,r.width),height:_(t,n.height,r.height)}},u:function(t,n){return function(r){var e=n(r);t.setAttribute("width",H(e.width)),t.setAttribute("height",H(e.height))}}},X=Math.sin,tt=Math.cos,nt=Math.acos,rt=Math.asin,et=Math.tan,it=Math.atan2,ot=Math.PI/180,ut=180/Math.PI,at=Math.sqrt,lt=function(){function t(){var n=arguments.length>0&&void 0!==arguments[0]?arguments[0]:1,e=arguments.length>1&&void 0!==arguments[1]?arguments[1]:0,i=arguments.length>2&&void 0!==arguments[2]?arguments[2]:0,o=arguments.length>3&&void 0!==arguments[3]?arguments[3]:1,u=arguments.length>4&&void 0!==arguments[4]?arguments[4]:0,a=arguments.length>5&&void 0!==arguments[5]?arguments[5]:0;r(this,t),this.m=[n,e,i,o,u,a],this.i=null,this.w=null,this.s=null}return i(t,[{key:"determinant",get:function(){var t=this.m;return t[0]*t[3]-t[1]*t[2]}},{key:"isIdentity",get:function(){if(null===this.i){var t=this.m;this.i=1===t[0]&&0===t[1]&&0===t[2]&&1===t[3]&&0===t[4]&&0===t[5]}return this.i}},{key:"point",value:function(t,n){var r=this.m;return{x:r[0]*t+r[2]*n+r[4],y:r[1]*t+r[3]*n+r[5]}}},{key:"translateSelf",value:function(){var t=arguments.length>0&&void 0!==arguments[0]?arguments[0]:0,n=arguments.length>1&&void 0!==arguments[1]?arguments[1]:0;if(!t&&!n)return this;var r=this.m;return r[4]+=r[0]*t+r[2]*n,r[5]+=r[1]*t+r[3]*n,this.w=this.s=this.i=null,this}},{key:"rotateSelf",value:function(){var t=arguments.length>0&&void 0!==arguments[0]?arguments[0]:0;if(t%=360){var n=X(t*=ot),r=tt(t),e=this.m,i=e[0],o=e[1];e[0]=i*r+e[2]*n,e[1]=o*r+e[3]*n,e[2]=e[2]*r-i*n,e[3]=e[3]*r-o*n,this.w=this.s=this.i=null}return this}},{key:"scaleSelf",value:function(){var t=arguments.length>0&&void 0!==arguments[0]?arguments[0]:1,n=arguments.length>1&&void 0!==arguments[1]?arguments[1]:1;if(1!==t||1!==n){var r=this.m;r[0]*=t,r[1]*=t,r[2]*=n,r[3]*=n,this.w=this.s=this.i=null}return this}},{key:"skewSelf",value:function(t,n){if(n%=360,(t%=360)||n){var r=this.m,e=r[0],i=r[1],o=r[2],u=r[3];t&&(t=et(t*ot),r[2]+=e*t,r[3]+=i*t),n&&(n=et(n*ot),r[0]+=o*n,r[1]+=u*n),this.w=this.s=this.i=null}return this}},{key:"resetSelf",value:function(){var t=arguments.length>0&&void 0!==arguments[0]?arguments[0]:1,n=arguments.length>1&&void 0!==arguments[1]?arguments[1]:0,r=arguments.length>2&&void 0!==arguments[2]?arguments[2]:0,e=arguments.length>3&&void 0!==arguments[3]?arguments[3]:1,i=arguments.length>4&&void 0!==arguments[4]?arguments[4]:0,o=arguments.length>5&&void 0!==arguments[5]?arguments[5]:0,u=this.m;return u[0]=t,u[1]=n,u[2]=r,u[3]=e,u[4]=i,u[5]=o,this.w=this.s=this.i=null,this}},{key:"recomposeSelf",value:function(){var t=arguments.length>0&&void 0!==arguments[0]?arguments[0]:null,n=arguments.length>1&&void 0!==arguments[1]?arguments[1]:null,r=arguments.length>2&&void 0!==arguments[2]?arguments[2]:null,e=arguments.length>3&&void 0!==arguments[3]?arguments[3]:null,i=arguments.length>4&&void 0!==arguments[4]?arguments[4]:null;return this.isIdentity||this.resetSelf(),t&&(t.x||t.y)&&this.translateSelf(t.x,t.y),n&&this.rotateSelf(n),r&&(r.x&&this.skewSelf(r.x,0),r.y&&this.skewSelf(0,r.y)),!e||1===e.x&&1===e.y||this.scaleSelf(e.x,e.y),i&&(i.x||i.y)&&this.translateSelf(i.x,i.y),this}},{key:"decompose",value:function(){var t=arguments.length>0&&void 0!==arguments[0]?arguments[0]:0,n=arguments.length>1&&void 0!==arguments[1]?arguments[1]:0,r=this.m,e=r[0]*r[0]+r[1]*r[1],i=[[r[0],r[1]],[r[2],r[3]]],o=at(e);if(0===o)return{origin:{x:h(r[4]),y:h(r[5])},translate:{x:h(t),y:h(n)},scale:{x:0,y:0},skew:{x:0,y:0},rotate:0};i[0][0]/=o,i[0][1]/=o;var u=r[0]*r[3]-r[1]*r[2]<0;u&&(o=-o);var a=i[0][0]*i[1][0]+i[0][1]*i[1][1];i[1][0]-=i[0][0]*a,i[1][1]-=i[0][1]*a;var l=at(i[1][0]*i[1][0]+i[1][1]*i[1][1]);if(0===l)return{origin:{x:h(r[4]),y:h(r[5])},translate:{x:h(t),y:h(n)},scale:{x:h(o),y:0},skew:{x:0,y:0},rotate:0};i[1][0]/=l,i[1][1]/=l,a/=l;var f=0;return i[1][1]<0?(f=nt(i[1][1])*ut,i[0][1]<0&&(f=360-f)):f=rt(i[0][1])*ut,u&&(f=-f),a=it(a,at(i[0][0]*i[0][0]+i[0][1]*i[0][1]))*ut,u&&(a=-a),{origin:{x:h(r[4]),y:h(r[5])},translate:{x:h(t),y:h(n)},scale:{x:h(o),y:h(l)},skew:{x:h(a),y:0},rotate:h(f)}}},{key:"toString",value:function(){return null===this.s&&(this.s="matrix("+this.m.map((function(t){return h(t)})).join(" ")+")"),this.s}}]),t}();Object.freeze({M:2,L:2,Z:0,H:1,V:1,C:6,Q:4,T:2,S:4,A:7});var ft={},st=null;function ct(t){var r=function(){if(st)return st;if("object"!==("undefined"==typeof document?"undefined":n(document))||!document.createElementNS)return{};var t=document.createElementNS("http://www.w3.org/2000/svg","svg");return t&&t.style?(t.style.position="absolute",t.style.opacity="0.01",t.style.zIndex="-9999",t.style.left="-9999px",t.style.width="1px",t.style.height="1px",st={svg:t}):{}}().svg;if(!r)return function(t){return null};var e=document.createElementNS(r.namespaceURI,"path");e.setAttributeNS(null,"d",t),e.setAttributeNS(null,"fill","none"),e.setAttributeNS(null,"stroke","none"),r.appendChild(e);var i=e.getTotalLength();return function(t){var n=e.getPointAtLength(i*t);return{x:n.x,y:n.y}}}function ht(t){return ft[t]?ft[t]:ft[t]=ct(t)}function vt(t,n,r,e){if(!t||!e)return!1;var i=["M",t.x,t.y];if(n&&r&&(i.push("C"),i.push(n.x),i.push(n.y),i.push(r.x),i.push(r.y)),n?!r:r){var o=n||r;i.push("Q"),i.push(o.x),i.push(o.y)}return n||r||i.push("L"),i.push(e.x),i.push(e.y),i.join(" ")}function yt(t,n,r,e){var i=arguments.length>4&&void 0!==arguments[4]?arguments[4]:1,o=vt(t,n,r,e),u=ht(o);try{return u(i)}catch(t){return null}}function gt(t,n,r,e){var i=1-e;return i*i*t+2*i*e*n+e*e*r}function dt(t,n,r,e){return 2*(1-e)*(n-t)+2*e*(r-n)}function pt(t,n,r,e){var i=arguments.length>4&&void 0!==arguments[4]&&arguments[4],o=yt(t,n,null,r,e);return o||(o={x:gt(t.x,n.x,r.x,e),y:gt(t.y,n.y,r.y,e)}),i&&(o.a=mt(t,n,r,e)),o}function mt(t,n,r,e){return Math.atan2(dt(t.y,n.y,r.y,e),dt(t.x,n.x,r.x,e))}function bt(t,n,r,e,i){var o=i*i;return i*o*(e-t+3*(n-r))+3*o*(t+r-2*n)+3*i*(n-t)+t}function wt(t,n,r,e,i){var o=1-i;return 3*(o*o*(n-t)+2*o*i*(r-n)+i*i*(e-r))}function xt(t,n,r,e,i){var o=arguments.length>5&&void 0!==arguments[5]&&arguments[5],u=yt(t,n,r,e,i);return u||(u={x:bt(t.x,n.x,r.x,e.x,i),y:bt(t.y,n.y,r.y,e.y,i)}),o&&(u.a=kt(t,n,r,e,i)),u}function kt(t,n,r,e,i){return Math.atan2(wt(t.y,n.y,r.y,e.y,i),wt(t.x,n.x,r.x,e.x,i))}function _t(t,n,r){return t+(n-t)*r}function At(t,n,r){var e=arguments.length>3&&void 0!==arguments[3]&&arguments[3],i={x:_t(t.x,n.x,r),y:_t(t.y,n.y,r)};return e&&(i.a=St(t,n)),i}function St(t,n){return Math.atan2(n.y-t.y,n.x-t.x)}function Ot(t,n,r){var e=arguments.length>3&&void 0!==arguments[3]&&arguments[3];if(jt(n)){if(Mt(r))return pt(n,r.start,r,t,e)}else if(jt(r)){if(n.end)return pt(n,n.end,r,t,e)}else{if(n.end)return r.start?xt(n,n.end,r.start,r,t,e):pt(n,n.end,r,t,e);if(r.start)return pt(n,r.start,r,t,e)}return At(n,r,t,e)}function Pt(t,n,r){var e=Ot(t,n,r,!0);return e.a=function(t){return arguments.length>1&&void 0!==arguments[1]&&arguments[1]?t+Math.PI:t}(e.a)/y,e}function jt(t){return!t.type||"corner"===t.type}function Mt(t){return null!=t.start&&!jt(t)}var Et=new lt;var Rt={f:H,i:k},It={f:H,i:function(t,n,r){var e=k(t,n,r);return e<=0?0:e>=1?1:e}};function Ft(t,n,r,e,i,o,u,a){return n=function(t,n,r){for(var e,i,o,u=t.length-1,a={},l=0;l<=u;l++)(e=t[l]).e&&(e.e=n(e.e)),e.v&&"g"===(i=e.v).t&&i.r&&(o=r.getElementById(i.r))&&(a[i.r]=o.querySelectorAll("stop"));return a}(t,e,a),function(e){var i,o=r(e,t,Nt);return o?"c"===o.t?Z(o.v):"g"===o.t?(n[o.r]&&function(t,n){for(var r=0,e=t.length;r<e;r++)t[r].setAttribute("stop-color",Z(n[r]))}(n[o.r],o.v),(i=o.r)?"url(#"+i+")":"none"):"none":"none"}}function Nt(t,n,r){if(0===t)return n;if(1===t)return r;if(n&&r){var e=n.t;if(e===r.t)switch(n.t){case"c":return{t:e,v:O(t,n.v,r.v)};case"g":if(n.r===r.r)return{t:e,v:P(t,n.v,r.v),r:n.r}}}return x(t,n,r)}var Tt={fill:Ft,"fill-opacity":It,stroke:Ft,"stroke-opacity":It,"stroke-width":Rt,"stroke-dashoffset":{f:H,i:k},"stroke-dasharray":{f:function(t){var n=arguments.length>1&&void 0!==arguments[1]?arguments[1]:" ";return t&&t.length>0&&(t=t.map((function(t){return h(t,4)}))),J(t,n)},i:function(t,n,r){var e,i,o,u=n.length,a=r.length;if(u!==a)if(0===u)n=j(u=a,0);else if(0===a)a=u,r=j(u,0);else{var l=(o=(e=u)*(i=a)/function(t,n){for(var r;n;)r=n,n=t%n,t=r;return t||1}(e,i))<0?-o:o;n=M(n,Math.floor(l/u)),r=M(r,Math.floor(l/a)),u=a=l}for(var f=[],s=0;s<u;s++)f.push(h(_(t,n[s],r[s])));return f}},opacity:It,transform:function(t,r,e,i){if(!(t=function(t,r){if(!t||"object"!==n(t))return null;var e=!1;for(var i in t)t.hasOwnProperty(i)&&(t[i]&&t[i].length?(t[i].forEach((function(t){t.e&&(t.e=r(t.e))})),e=!0):delete t[i]);return e?t:null}(t,i)))return null;var o=function(n,i,o){var u=arguments.length>3&&void 0!==arguments[3]?arguments[3]:null;return t[n]?e(i,t[n],o):r&&r[n]?r[n]:u};return r&&r.a&&t.o?function(n){var r=e(n,t.o,Pt);return Et.recomposeSelf(r,o("r",n,k,0)+r.a,o("k",n,A),o("s",n,A),o("t",n,A)).toString()}:function(t){return Et.recomposeSelf(o("o",t,Ot,null),o("r",t,k,0),o("k",t,A),o("s",t,A),o("t",t,A)).toString()}},r:Rt,"#size":W,"#radius":K,_:function(t,n){if(Array.isArray(t))for(var r=0;r<t.length;r++)this[t[r]]=n;else this[t]=n}},Bt=function(t){!function(t,n){if("function"!=typeof n&&null!==n)throw new TypeError("Super expression must either be null or a function");t.prototype=Object.create(n&&n.prototype,{constructor:{value:t,writable:!0,configurable:!0}}),n&&a(t,n)}(e,t);var n=f(e);function e(){return r(this,e),n.apply(this,arguments)}return i(e,null,[{key:"build",value:function(t){var n=s(u(e),"build",this).call(this,t,Tt);if(!n)return null;n.el,n.options,function(t,n,r){t.play()}(n.player)}}]),e}($);return Bt.init(),Bt}));
(function(s,i,o,w){w[o]=w[o]||{};w[o][s]=w[o][s]||[];w[o][s].push(i);})('5c7f360c',{"root":"evjhGwnWAfp1","animations":[{"elements":{"evjhGwnWAfp5":{"transform":{"data":{"t":{"x":-520.532272,"y":-353.794998}},"keys":{"o":[{"t":0,"v":{"x":528.889248,"y":444.682303,"type":"corner"}},{"t":3000,"v":{"x":368.058593,"y":101.806624,"type":"corner"}}]}}},"evjhGwnWAfp36":{"transform":{"data":{"t":{"x":-0.000451,"y":0.000098}},"keys":{"o":[{"t":0,"v":{"x":110.178004,"y":152.461286,"type":"cusp","end":{"x":-422.925925,"y":350.027165}}},{"t":3000,"v":{"x":759.127751,"y":124.571365,"type":"cusp","start":{"x":1187.689366,"y":214.535334}}}]}}}},"s":"MCDA1M2JjNjNhNWI2YjBNhMmI1YWFiMGFmNjMS3Yjc0NzE3MTcxNmQ2FM2E1YWFiM0RhNmE0YWjVJYWFiMGFmNjNUN2LI3MjZkUzYzYWFiNWEE2YjNhMmI1YWFIYjBhTZmI0NjM3YjcyNmQ2MM2E3YWFhZGFkNjNHN2TI3MjZkNjNDYTJhZGIK1YTZiM2FmYTJWYjVhDNlk2MzdiYTdhMlNhZHFdiNGE2NmQ2M2I0YjBFhNmE2YTU2MzdiNzJPiZVM/"}],"options":"MVDAxMDg4MmY4MDgxNmWU3ZjgxMmY0NzJmNzkI3YzZlNzEyZjhh"},'__SVGATOR_PLAYER__',window)]]></script></svg>